<?xml version="1.0" encoding="UTF-8" standalone="no"?>
<!-- Created with Inkscape (http://www.inkscape.org/) -->
<svg xmlns:dc="http://purl.org/dc/elements/1.1/" xmlns:cc="http://creativecommons.org/ns#" xmlns:rdf="http://www.w3.org/1999/02/22-rdf-syntax-ns#" xmlns:svg="http://www.w3.org/2000/svg" xmlns="http://www.w3.org/2000/svg" xmlns:sodipodi="http://sodipodi.sourceforge.net/DTD/sodipodi-0.dtd" xmlns:inkscape="http://www.inkscape.org/namespaces/inkscape" version="1.0" width="448.24399" height="289.492" viewBox="0 0 448.244 289.492" id="Layer_1" xml:space="preserve" inkscape:version="0.47 r22583" sodipodi:docname="Gerald_G_Balance_Scale.svg"><sodipodi:namedview pagecolor="#ffffff" bordercolor="#666666" borderopacity="1" objecttolerance="10" gridtolerance="10" guidetolerance="10" inkscape:pageopacity="0" inkscape:pageshadow="2" inkscape:window-width="1366" inkscape:window-height="713" id="namedview45" showgrid="false" inkscape:zoom="1.1455691" inkscape:cx="194.66194" inkscape:cy="162.69015" inkscape:window-x="-4" inkscape:window-y="32" inkscape:window-maximized="1" inkscape:current-layer="Layer_1"/><defs id="defs84"><inkscape:perspective sodipodi:type="inkscape:persp3d" inkscape:vp_x="0 : 144.746 : 1" inkscape:vp_y="0 : 1000 : 0" inkscape:vp_z="448.24399 : 144.746 : 1" inkscape:persp3d-origin="224.12199 : 96.497335 : 1" id="perspective47"/>
	
	
	
	
	
	
	
	
	
	
	
	
	
	
	
	
	
	
	
	
	
	
	
	
	
	
	
	
	
	
	
	
	
	
	
	
	
	
</defs>



<path id="path7" style="fill:#ddaa13;fill-rule:evenodd" d="m 179.135,16.49 c 8.388,-6.696 17.352,-11.088 27.18,-13.176 9.756,-2.088 21.169,-1.764 31.32,0.396 10.08,2.088 19.513,5.94 28.836,11.952 l 0,0 -8.64,14.004 0,0 c -4.14,-2.196 -7.848,-3.744 -11.52,-4.932 -3.744,-1.188 -7.057,-1.872 -10.332,-2.052 l 0,0 c 1.332,10.728 1.979,26.424 2.088,47.772 0.036,21.42 -0.973,54.828 -1.656,79.524 -0.828,24.552 -1.656,46.44 -2.88,66.78 l 0,0 c 3.636,-0.036 7.02,0.792 10.296,2.34 3.204,1.62 6.228,3.78 9.072,7.02 l 0,0 c 6.659,0.324 11.699,1.368 15.659,3.276 3.816,1.908 6.337,4.392 7.416,7.848 l 0,0 c 3.925,0.54 7.813,1.908 11.521,4.104 3.708,2.196 9.18,5.22 10.728,9.072 1.404,3.815 2.053,8.676 -2.088,13.607 -4.248,4.788 -11.34,11.16 -23.076,15.229 -11.987,3.96 -31.067,7.92 -47.376,8.676 -16.38,0.611 -36,-0.9 -49.428,-4.536 -13.464,-3.78 -25.164,-11.448 -30.096,-17.316 -4.86,-5.903 -2.124,-13.248 0.828,-17.315 2.808,-4.141 8.172,-6.336 16.092,-6.984 l 0,0 c 1.404,-2.376 3.996,-4.716 8.208,-7.02 4.14,-2.376 9.504,-4.716 16.488,-7.021 l 0,0 c 0.468,-0.72 2.664,-1.943 7.02,-3.672 4.284,-1.836 10.332,-4.176 18.54,-7.02 l 0,0 c -2.124,-23.725 -3.312,-47.341 -3.708,-72.108 -0.432,-24.876 0.756,-54.685 1.224,-75.42 0.468,-20.664 0.756,-36.324 1.26,-47.664 l 0,0 c -5.292,1.404 -9.648,2.772 -13.212,4.104 -3.636,1.332 -6.336,2.52 -8.244,3.708 l 0,0 c -3.817,-4.392 -7.668,-8.784 -11.52,-13.176 l 0,0 z"/><g id="g3007" transform="translate(0,50)"><path d="m 49.75,167.078 c -13.5,2.053 -23.76,4.393 -31.32,7.021 -7.632,2.592 -11.844,6.444 -13.608,8.64 -1.836,2.052 -1.476,2.736 3.312,4.141 4.824,1.332 13.248,2.699 25.56,4.104 l 0,0 c 3.672,7.021 9.756,11.772 18.54,14.832 8.748,2.952 21.348,5.904 33.768,2.88 12.42,-3.204 25.416,-10.151 39.96,-21.42 l 0,0 c 7.416,-0.828 13.32,-2.34 18.144,-4.536 4.716,-2.195 13.428,-5.903 10.296,-8.64 -3.313,-2.916 -18.252,-6.912 -29.268,-8.244 -11.088,-1.332 -24.084,0.144 -36.648,0.396 -12.707,0.143 -25.343,0.467 -38.736,0.826 l 0,0 z" style="fill:#ddaa13;fill-rule:evenodd" id="path9"/><path d="m 61.703,166.683 c -14.904,0.252 -27.144,2.016 -37.548,5.004 -10.368,3.06 -24.696,9.648 -24.12,13.104 0.576,3.349 12.96,5.364 27.576,6.877 14.58,1.296 42.876,1.943 59.328,1.403 16.308,-0.611 28.728,-2.231 37.944,-4.859 l 0,0 c -24.12,1.764 -44.676,2.592 -62.784,2.771 -18.108,0.036 -35.316,-0.936 -44.82,-2.088 -9.54,-1.188 -12.06,-2.521 -11.736,-4.824 0.252,-2.412 4.428,-6.048 13.788,-8.964 9.467,-2.953 23.364,-5.76 42.372,-8.424 l 0,0 z" style="fill-rule:evenodd;stroke:#000000;stroke-width:0.036;stroke-miterlimit:10" id="path11"/><path d="m 90.539,165.423 c 14.868,-1.116 27.504,-1.116 38.304,0 10.764,1.044 22.068,4.031 25.992,6.624 3.78,2.592 0.36,6.12 -3.312,8.64 -3.816,2.376 -10.224,4.248 -19.368,5.76 l 0,0 c 9.216,-2.556 15.084,-5.076 18.144,-7.416 2.916,-2.412 3.564,-4.932 -0.432,-6.983 -4.14,-2.232 -14.004,-4.681 -23.904,-5.796 -10.008,-1.117 -21.636,-1.441 -35.424,-0.829 l 0,0 z" style="fill-rule:evenodd;stroke:#000000;stroke-width:0.036;stroke-miterlimit:10" id="path13"/><path d="m 127.619,169.131 c 10.728,2.304 15.768,4.464 15.264,6.624 -0.756,2.124 -8.604,4.176 -18.54,6.155 -9.936,1.836 -23.22,3.492 -40.392,4.969 l 0,0 c 16.416,-2.232 28.728,-4.248 37.476,-6.192 8.64,-1.98 13.32,-3.492 14.436,-5.364 1.008,-1.98 -1.693,-3.997 -8.244,-6.192 l 0,0 z" style="fill-rule:evenodd;stroke:#000000;stroke-width:0.036;stroke-miterlimit:10" id="path15"/><path d="m 98.351,169.959 c -15.084,-0.253 -28.224,0.216 -39.96,1.26 -11.808,0.972 -23.724,2.987 -30.06,4.932 -6.444,1.944 -9.108,4.284 -7.416,6.192 1.8,1.764 7.74,3.275 18.108,4.536 l 0,0 c -10.224,-1.801 -15.264,-3.492 -15.66,-5.364 -0.288,-1.872 6.192,-4.248 13.608,-5.76 7.38,-1.62 19.728,-2.809 30.096,-3.708 10.368,-0.937 20.519,-1.729 31.284,-2.088 l 0,0 z" style="fill-rule:evenodd;stroke:#000000;stroke-width:0.036;stroke-miterlimit:10" id="path17"/><path d="m 41.11,200.055 c 8.964,5.364 17.208,8.748 25.128,10.296 7.776,1.476 13.104,1.116 21.816,-1.224 8.784,-2.521 18.54,-6.732 30.096,-13.213 l 0,0 c -14.544,5.4 -26.172,8.929 -35.424,10.729 -9.252,1.692 -12.888,1.044 -19.8,0 -7.019,-1.153 -14.147,-3.348 -21.816,-6.588 l 0,0 z" style="fill-rule:evenodd;stroke:#000000;stroke-width:0.036;stroke-miterlimit:10" id="path19"/><path d="m 66.635,101.558 c -8.424,11.34 -15.012,21.456 -20.196,31.32 -5.256,9.648 -8.676,18.576 -10.692,26.784 l 0,0 c 8.64,-16.272 15.372,-28.908 20.592,-38.736 5.148,-9.828 8.532,-16.056 10.296,-19.368 l 0,0 z" style="fill-rule:evenodd;stroke:#000000;stroke-width:0.036;stroke-miterlimit:10" id="path21"/><path d="m 83.123,96.23 c 9.54,14.256 18.144,26.244 25.956,36.648 7.812,10.404 14.58,18.505 20.592,25.129 l 0,0 C 121.103,145.335 113.183,134.21 105.371,123.806 97.487,113.474 90.25,104.33 83.123,96.23 l 0,0 z" style="fill-rule:evenodd;stroke:#000000;stroke-width:0.036;stroke-miterlimit:10" id="path23"/><path d="m 74.482,95.402 c -1.368,14.976 -2.376,27.288 -2.88,37.908 -0.612,10.476 -0.756,18.613 -0.432,24.697 l 0,0 c 1.908,-12.744 3.096,-24.049 3.708,-34.597 0.54,-10.476 0.361,-19.764 -0.396,-28.008 l 0,0 z" style="fill-rule:evenodd;stroke:#000000;stroke-width:0.036;stroke-miterlimit:10" id="path25"/></g><path id="path27" style="fill-rule:evenodd;stroke:#000000;stroke-width:0.036;stroke-miterlimit:10" d="m 194.363,222.303 c -5.112,3.527 -7.848,7.092 -8.64,10.691 -0.756,3.601 -0.684,7.633 4.104,10.729 4.752,2.952 15.084,6.12 24.336,7.02 9.288,0.612 22.644,-0.216 30.493,-2.483 7.596,-2.232 12.672,-5.761 15.228,-10.729 l 0,0 -9.071,-11.916 4.968,12.349 0,0 c -4.393,3.6 -9.937,6.12 -17.316,7.416 -7.416,1.151 -18.288,1.151 -26.353,0.396 -8.208,-0.72 -18.036,-1.908 -21.852,-4.536 -3.672,-2.771 -1.224,-8.784 -0.432,-11.52 0.612,-2.736 3.744,-3.78 4.536,-4.933 0.719,-1.297 0.719,-2.125 -0.001,-2.484 l 0,0 z"/><path id="path29" style="fill-rule:evenodd;stroke:#000000;stroke-width:0.036;stroke-miterlimit:10" d="m 184.066,227.234 c -5.832,1.152 -9.72,3.024 -11.952,5.76 -2.196,2.736 -4.5,6.553 -1.224,10.332 3.276,3.708 10.512,9.072 20.592,11.521 10.116,2.16 27.288,2.52 39.169,2.052 11.7,-0.468 21.672,-2.16 30.491,-4.932 l 0,0 c -17.819,2.664 -32.651,3.636 -45.324,3.312 -12.708,-0.504 -22.788,-2.952 -30.096,-5.796 -7.38,-2.916 -13.356,-7.452 -13.608,-11.124 -0.251,-3.745 3.636,-7.453 11.952,-11.125 l 0,0 z"/><path id="path31" style="fill-rule:evenodd;stroke:#000000;stroke-width:0.036;stroke-miterlimit:10" d="m 208.403,218.99 c -5.58,0.973 -8.784,2.305 -9.9,4.141 -1.08,1.8 -0.864,4.968 3.276,6.588 4.14,1.439 14.256,2.448 21.024,2.483 6.66,-0.035 12.708,-0.863 18.54,-2.483 l 0,0 c -12.06,0.936 -21.348,0.936 -28.008,0.396 -6.768,-0.647 -11.124,-2.34 -11.952,-4.104 -0.757,-1.872 1.404,-4.212 7.02,-7.021 l 0,0 z"/><path id="path33" style="fill-rule:evenodd;stroke:#000000;stroke-width:0.036;stroke-miterlimit:10" d="m 161.422,243.326 c -2.556,2.305 -3.384,5.004 -2.88,8.244 0.504,3.132 -0.036,7.164 6.156,11.124 6.264,3.924 16.524,10.26 30.492,12.348 13.824,1.944 38.809,1.116 51.913,-0.396 12.924,-1.584 18.756,-4.932 25.56,-9.072 6.696,-4.319 11.376,-9.504 14.436,-16.092 l 0,0 -8.243,-11.124 5.363,11.556 0,0 c -1.584,3.24 -5.256,6.624 -11.16,10.297 -6.012,3.672 -13.464,9.323 -24.3,11.52 -11.016,1.98 -29.52,1.512 -40.788,0.828 -11.304,-0.756 -18.792,-2.448 -26.352,-4.932 -7.632,-2.593 -15.624,-6.301 -18.972,-10.297 -3.384,-4.031 -3.744,-8.748 -1.225,-14.004 l 0,0 z"/><path id="path35" style="fill-rule:evenodd;stroke:#000000;stroke-width:0.036;stroke-miterlimit:10" d="m 151.522,242.066 c -5.472,4.14 -8.172,8.856 -8.244,14.437 -0.108,5.579 1.116,13.248 7.848,18.539 6.732,5.04 18.216,9.576 32.112,11.952 13.824,2.341 30.312,3.024 50.292,2.053 l 0,0 c -19.441,-0.396 -35.604,-2.232 -49.465,-5.364 -13.932,-3.24 -27,-7.813 -32.94,-13.572 -5.832,-5.939 -2.268,-16.236 -2.088,-21.023 0.038,-4.682 0.866,-7.022 2.485,-7.022 l 0,0 z"/><path id="path37" style="fill-rule:evenodd;stroke:#000000;stroke-width:0.036;stroke-miterlimit:10" d="m 242.999,286.599 c 8.64,-1.368 16.74,-3.528 25.128,-6.624 8.28,-3.096 19.152,-7.452 24.3,-11.952 5.004,-4.752 6.805,-11.124 5.796,-15.66 -1.188,-4.607 -5.184,-8.352 -12.384,-11.52 l 0,0 c 7.416,1.548 12.313,4.248 14.832,8.244 2.412,3.995 2.736,10.691 0,15.659 -2.844,4.86 -6.84,9.396 -16.452,13.177 -9.756,3.636 -23.22,6.479 -41.22,8.676 l 0,0 z"/><path id="path39" style="fill-rule:evenodd;stroke:#000000;stroke-width:0.036;stroke-miterlimit:10" d="m 262.367,228.063 c 6.191,1.368 10.26,3.24 12.348,5.76 2.017,2.521 1.548,6.192 0,9.072 -1.691,2.772 -4.932,5.147 -9.863,7.416 l 0,0 c 5.615,-2.916 8.172,-6.156 7.812,-9.864 -0.469,-3.78 -3.852,-7.776 -10.297,-12.384 l 0,0 z"/><path id="path41" style="fill-rule:evenodd;stroke:#000000;stroke-width:0.036;stroke-miterlimit:10" d="m 237.635,217.767 c 5.58,0.288 8.964,1.296 10.296,2.88 1.332,1.62 0.469,3.672 -2.447,6.588 l 0,0 c 1.836,-2.304 2.159,-4.176 0.828,-5.76 -1.333,-1.621 -4.177,-2.808 -8.677,-3.708 l 0,0 z"/><path id="path43" style="fill-rule:evenodd;stroke:#000000;stroke-width:0.036;stroke-miterlimit:10" d="m 233.927,213.446 c 2.196,-19.836 3.528,-40.752 4.536,-63.863 0.864,-23.329 1.332,-52.597 0.828,-73.765 -0.576,-21.096 -1.944,-37.944 -4.104,-51.516 l 0,0 c 1.26,25.812 1.8,53.928 1.619,85.716 -0.286,31.824 -1.115,65.701 -2.879,103.428 l 0,0 z"/><path id="path45" style="fill-rule:evenodd;stroke:#000000;stroke-width:0.036;stroke-miterlimit:10" d="m 213.334,215.931 c -1.26,-33.3 -1.944,-65.521 -2.052,-98.064 -0.216,-32.616 0.324,-64.152 1.224,-96.012 l 0,0 c -2.916,37.404 -4.284,71.496 -4.104,104.22 0.181,32.579 1.693,62.028 4.932,89.856 l 0,0 z"/><path id="path47" style="fill-rule:evenodd;stroke:#000000;stroke-width:0.036;stroke-miterlimit:10" d="M 181.187,12.782 C 192.095,6.41 202.535,2.522 213.335,0.83 c 10.729,-1.62 22.321,-0.756 31.716,2.052 9.36,2.7 17.101,7.272 23.904,14.004 l 0,0 c -9.432,-6.048 -19.404,-9.936 -30.06,-11.952 -10.872,-2.016 -24.085,-1.368 -33.805,0 -9.648,1.368 -17.568,3.852 -23.903,7.848 l 0,0 z"/><path id="path49" style="fill-rule:evenodd;stroke:#000000;stroke-width:0.036;stroke-miterlimit:10" d="m 177.911,16.058 11.916,16.92 0,0 c 2.556,-2.52 5.4,-4.536 8.676,-6.192 3.204,-1.692 6.768,-2.88 10.692,-3.708 l 0,0 c -4.68,0.36 -8.388,0.864 -11.52,1.656 -3.132,0.792 -5.472,1.62 -7.02,2.88 l 0,0 c -4.248,-3.852 -8.496,-7.704 -12.744,-11.556 l 0,0 z"/><path id="path51" style="fill-rule:evenodd;stroke:#000000;stroke-width:0.036;stroke-miterlimit:10" d="m 235.188,21.854 c 3.527,-0.072 6.911,0.612 10.296,1.656 3.384,1.152 6.624,2.664 9.863,4.932 l 0,0 13.212,-9.468 -11.951,14.4 0,0 c -6.372,-3.636 -11.269,-6.336 -14.832,-8.244 -3.672,-1.98 -5.725,-3.024 -6.588,-3.276 l 0,0 z"/><g id="g2999" transform="matrix(0.9283284,-0.37176119,0.37176119,0.9283284,-6.301274,85.955132)"><path d="m 223.234,12.386 c -1.764,5.364 -2.592,11.304 -2.484,18.108 0.036,6.804 1.044,14.04 2.88,22.248 l 0,0 c 0.865,-13.752 1.225,-23.688 1.225,-30.492 -0.072,-6.768 -0.612,-10.008 -1.621,-9.864 l 0,0 z" style="fill-rule:evenodd;stroke:#000000;stroke-width:0.036;stroke-miterlimit:10" id="path53"/><path d="m 42.73,72.326 c 11.916,-3.528 23.4,-5.508 35.028,-5.796 11.664,-0.396 22.788,0.9 34.2,3.744 l 0,0 c 27.756,-5.148 53.352,-8.136 78.3,-9.504 24.768,-1.368 44.137,0.108 69.624,1.656 25.561,1.548 52.524,3.888 82.404,7.416 l 0,0 c 4.824,-4.284 11.916,-6.3 21.852,-6.192 9.9,0.108 22.068,2.448 37.08,7.02 l 0,0 c 1.801,1.296 1.801,2.664 0,4.104 -1.943,1.44 -5.651,3.276 -11.124,4.536 -5.58,1.188 -14.075,2.916 -21.743,2.7 -7.74,-0.324 -15.589,-1.728 -23.977,-4.356 l 0,0 c -37.008,-4.212 -68.364,-6.624 -95.616,-7.38 -27.216,-0.72 -42.624,1.584 -66.348,2.88 -23.796,1.26 -48.6,2.664 -75.384,4.5 l 0,0 C 96.658,81.254 86.542,83.09 76.102,83.018 65.662,82.91 55.33,81.038 44.818,77.258 l 0,0 c -2.124,-0.252 -3.42,-0.9 -3.744,-1.656 -0.324,-0.792 0.18,-1.98 1.656,-3.276 l 0,0 z" style="fill:#ddaa13;fill-rule:evenodd" id="path55"/><path d="m 42.334,71.894 c 11.808,-4.608 23.292,-6.948 35.028,-7.416 11.664,-0.432 23.004,1.224 34.596,4.968 l 0,0 C 140.722,62.39 173.41,58.862 212.11,58.718 c 38.665,-0.108 81.145,3.06 129.78,9.9 l 0,0 c 7.488,-5.184 16.093,-7.524 25.956,-7.02 9.9,0.54 20.664,3.708 32.977,9.9 l 0,0 c -11.376,-4.176 -21.78,-6.192 -31.752,-6.192 -9.973,0 -19.08,2.016 -27.612,6.192 l 0,0 c -41.004,-4.212 -74.592,-6.912 -102.563,-8.244 -27.865,-1.332 -41.941,-1.152 -63.469,0.396 -21.636,1.512 -43.02,4.356 -65.124,8.676 l 0,0 c -9.36,-2.988 -19.476,-4.5 -30.888,-4.536 -11.448,-0.108 -23.617,1.26 -37.081,4.104 l 0,0 z" style="fill-rule:evenodd;stroke:#000000;stroke-width:0.036;stroke-miterlimit:10" id="path57"/><path d="m 49.75,78.914 c 11.7,4.176 21.672,6.372 30.492,6.588 8.712,0.144 15.948,-1.548 21.852,-5.364 l 0,0 C 90.682,81.974 80.782,82.802 71.998,82.622 63.143,82.406 55.907,81.218 49.75,78.914 l 0,0 z" style="fill-rule:evenodd;stroke:#000000;stroke-width:0.036;stroke-miterlimit:10" id="path59"/><path d="m 348.083,77.654 c 6.3,4.14 13.392,6.156 21.42,6.192 7.992,-0.036 16.632,-2.052 26.353,-6.192 l 0,0 c -9.973,2.16 -18.757,3.312 -26.784,3.312 -8.101,0 -14.869,-1.152 -20.989,-3.312 l 0,0 z" style="fill-rule:evenodd;stroke:#000000;stroke-width:0.036;stroke-miterlimit:10" id="path61"/><path d="m 118.15,78.914 c 37.98,-5.22 69.66,-8.28 96.84,-9.468 27,-1.08 43.417,0.756 64.26,2.448 20.772,1.476 40.176,3.672 59.328,6.588 l 0,0 c -30.312,-3.312 -57.312,-5.364 -82.8,-6.156 -25.452,-0.792 -45.289,0.036 -68.401,1.224 -23.218,1.116 -45.791,2.808 -69.227,5.364 l 0,0 z" style="fill-rule:evenodd;stroke:#000000;stroke-width:0.036;stroke-miterlimit:10" id="path63"/></g><g id="g3018" transform="translate(-5.4662331e-7,-60)"><path d="m 341.495,167.078 c -13.5,2.053 -23.76,4.393 -31.32,7.021 -7.632,2.592 -11.844,6.444 -13.607,8.64 -1.836,2.052 -1.477,2.736 3.312,4.141 4.824,1.332 13.248,2.699 25.561,4.104 l 0,0 c 3.672,7.021 9.756,11.772 18.54,14.832 8.819,2.952 21.239,5.904 33.768,2.88 12.384,-3.204 25.524,-10.151 39.996,-21.42 l 0,0 c 7.38,-0.828 13.284,-2.34 18.108,-4.536 4.716,-2.195 13.428,-5.903 10.296,-8.64 -3.349,-2.916 -18.145,-6.912 -29.232,-8.244 -11.124,-1.332 -24.048,0.144 -36.684,0.396 -12.71,0.143 -25.346,0.467 -38.738,0.826 l 0,0 z" style="fill:#ddaa13;fill-rule:evenodd" id="path65"/><path d="m 353.447,166.683 c -14.904,0.252 -27.145,2.016 -37.548,5.004 -10.368,3.06 -24.696,9.648 -24.12,13.104 0.576,3.349 12.96,5.364 27.576,6.877 14.58,1.296 42.876,1.943 59.328,1.403 16.308,-0.611 28.728,-2.231 37.943,-4.859 l 0,0 c -24.12,1.764 -44.676,2.592 -62.784,2.771 -18.107,0.036 -35.315,-0.936 -44.819,-2.088 -9.54,-1.188 -12.061,-2.521 -11.736,-4.824 0.252,-2.412 4.428,-6.048 13.788,-8.964 9.468,-2.953 23.364,-5.76 42.372,-8.424 l 0,0 z" style="fill-rule:evenodd;stroke:#000000;stroke-width:0.036;stroke-miterlimit:10" id="path67"/><path d="m 382.283,165.423 c 14.904,-1.116 27.54,-1.116 38.34,0 10.729,1.044 22.104,4.031 25.956,6.624 3.78,2.592 0.36,6.12 -3.312,8.64 -3.816,2.376 -10.225,4.248 -19.368,5.76 l 0,0 c 9.216,-2.556 15.084,-5.076 18.144,-7.416 2.952,-2.412 3.456,-4.932 -0.432,-6.983 -4.212,-2.232 -13.933,-4.681 -23.868,-5.796 -10.008,-1.117 -21.6,-1.441 -35.46,-0.829 l 0,0 z" style="fill-rule:evenodd;stroke:#000000;stroke-width:0.036;stroke-miterlimit:10" id="path69"/><path d="m 419.363,169.131 c 10.728,2.304 15.768,4.464 15.264,6.624 -0.756,2.124 -8.604,4.176 -18.54,6.155 -9.936,1.836 -23.22,3.492 -40.392,4.969 l 0,0 c 16.416,-2.232 28.728,-4.248 37.512,-6.192 8.676,-1.98 13.248,-3.492 14.4,-5.364 0.972,-1.98 -1.728,-3.997 -8.244,-6.192 l 0,0 z" style="fill-rule:evenodd;stroke:#000000;stroke-width:0.036;stroke-miterlimit:10" id="path71"/><path d="m 390.131,169.959 c -15.12,-0.253 -28.26,0.216 -39.996,1.26 -11.916,0.972 -23.688,2.987 -30.06,4.932 -6.444,1.944 -9.108,4.284 -7.416,6.192 1.8,1.764 7.74,3.275 18.108,4.536 l 0,0 c -10.152,-1.801 -15.229,-3.492 -15.625,-5.364 -0.252,-1.872 6.12,-4.248 13.572,-5.76 7.272,-1.62 19.765,-2.809 30.097,-3.708 10.296,-0.937 20.592,-1.729 31.32,-2.088 l 0,0 z" style="fill-rule:evenodd;stroke:#000000;stroke-width:0.036;stroke-miterlimit:10" id="path73"/><path d="m 332.855,200.055 c 8.964,5.364 17.208,8.748 25.128,10.296 7.812,1.476 13.104,1.116 21.852,-1.224 8.748,-2.521 18.576,-6.732 30.061,-13.213 l 0,0 c -14.545,5.4 -26.173,8.929 -35.425,10.729 -9.252,1.692 -12.888,1.044 -19.8,0 -7.02,-1.153 -14.148,-3.348 -21.816,-6.588 l 0,0 z" style="fill-rule:evenodd;stroke:#000000;stroke-width:0.036;stroke-miterlimit:10" id="path75"/><path d="m 358.379,101.558 c -8.352,11.34 -14.976,21.456 -20.16,31.32 -5.22,9.648 -8.748,18.576 -10.728,26.784 l 0,0 c 8.64,-16.272 15.372,-28.908 20.592,-38.736 5.148,-9.828 8.532,-16.056 10.296,-19.368 l 0,0 z" style="fill-rule:evenodd;stroke:#000000;stroke-width:0.036;stroke-miterlimit:10" id="path77"/><path d="m 374.867,96.23 c 9.54,14.256 18.144,26.244 25.956,36.648 7.812,10.404 14.544,18.505 20.628,25.129 l 0,0 C 412.955,145.335 404.89,134.21 397.115,123.806 389.231,113.474 381.995,104.33 374.867,96.23 l 0,0 z" style="fill-rule:evenodd;stroke:#000000;stroke-width:0.036;stroke-miterlimit:10" id="path79"/><path d="m 366.228,95.402 c -1.368,14.976 -2.376,27.288 -2.881,37.908 -0.611,10.476 -0.756,18.613 -0.432,24.697 l 0,0 c 1.908,-12.744 3.096,-24.049 3.708,-34.597 0.54,-10.476 0.36,-19.764 -0.395,-28.008 l 0,0 z" style="fill-rule:evenodd;stroke:#000000;stroke-width:0.036;stroke-miterlimit:10" id="path81"/></g>
<metadata><rdf:RDF><cc:Work><dc:format>image/svg+xml</dc:format><dc:type rdf:resource="http://purl.org/dc/dcmitype/StillImage"/><cc:license rdf:resource="http://creativecommons.org/licenses/publicdomain/"/><dc:publisher><cc:Agent rdf:about="http://openclipart.org/"><dc:title>Open Clip Art Library</dc:title></cc:Agent></dc:publisher><dc:title>Balanza</dc:title><dc:date>2011-04-10T12:37:46</dc:date><dc:description>A modifications to the Gerarld_G word "Balance Scales" for add and unbalanced balance.</dc:description><dc:source>http://openclipart.org/detail/131899/balanza-by-enhy</dc:source><dc:creator><cc:Agent><dc:title>enhy</dc:title></cc:Agent></dc:creator><dc:subject><rdf:Bag><rdf:li>balance</rdf:li><rdf:li>balanzas</rdf:li><rdf:li>clip art</rdf:li><rdf:li>clipart</rdf:li><rdf:li>herramientas</rdf:li><rdf:li>scale</rdf:li><rdf:li>tool</rdf:li></rdf:Bag></dc:subject></cc:Work><cc:License rdf:about="http://creativecommons.org/licenses/publicdomain/"><cc:permits rdf:resource="http://creativecommons.org/ns#Reproduction"/><cc:permits rdf:resource="http://creativecommons.org/ns#Distribution"/><cc:permits rdf:resource="http://creativecommons.org/ns#DerivativeWorks"/></cc:License></rdf:RDF></metadata></svg>
